<?xml version="1.0" encoding="UTF-8"?>
<svg id="Camada_1" xmlns="http://www.w3.org/2000/svg" viewBox="0 0 1024 1023.9">
  <defs>
    <style>
      .cls-1 {
        fill: #f97316;
      }
    </style>
  </defs>
  <path class="cls-1" d="M4.72,770.22c88.54,64.69,174.96,104.02,259.31,129.89,20.7-27.95,39.33-57.96,55.37-89.53-30.53-11.39-59.51-25.36-87.46-41.92,7.25-5.17,13.97-10.86,21.22-16.56,166.63,77.11,349.35,77.11,518.05,0,6.73,5.69,13.97,11.39,21.22,16.56-27.94,16.56-56.92,30.53-87.45,41.92,16.04,31.56,34.67,61.58,55.37,89.53,84.4-25.88,170.3-65.21,259.31-129.89,18.11-190.43-18.11-383.45-152.14-581.13-66.29-30.53-137.18-52.78-211.7-65.2-8.8,16.04-19.67,37.78-26.91,54.85-77.62-11.38-155.76-11.38-234.47,0-7.25-17.08-17.6-38.81-26.91-54.85-74,12.42-144.9,34.67-211.65,65.2C39.96,358.31-17.53,549.78,4.72,770.22ZM589.58,550.29c-1.03-56.41,40.88-102.46,92.11-102.46,51.75,0,92.11,46.06,92.11,102.46,0,56.41-41.4,102.46-92.11,102.46-51.23,0-92.11-46.05-92.11-102.46ZM249.54,550.29c-1.04-56.41,40.88-102.46,92.11-102.46,51.75,0,92.17,46.06,92.17,102.46s-41.45,102.46-92.17,102.46c-51.75,0-92.11-46.05-92.11-102.46Z"/>
</svg>