<?xml version="1.0" encoding="UTF-8"?>
<svg xmlns="http://www.w3.org/2000/svg" version="1.1" viewBox="0 0 16 16">
  <defs>
    <style>
      .cls-1 {
        fill: #f97316;
      }
    </style>
  </defs>
  <g>
    <g id="Camada_1">
      <path class="cls-1" d="M8,.2C3.6.2,0,3.8,0,8.2c0,3.4,2.2,6.5,5.5,7.6.4,0,.6-.2.6-.4v-1.4c-2.2.5-2.7-1.1-2.7-1.1-.4-.9-.9-1.2-.9-1.2-.7-.5,0-.5,0-.5.8,0,1.2.8,1.2.8.7,1.2,1.9.9,2.3.7,0-.5.3-.9.5-1.1-1.8-.2-3.6-.9-3.6-4s.3-1.6.8-2.1c0-.2-.4-1,0-2.1,0,0,.7-.2,2.2.8,1.3-.4,2.7-.4,4,0,1.5-1,2.2-.8,2.2-.8.4,1.1.2,1.9,0,2.1.5.6.8,1.4.8,2.1,0,3.1-1.9,3.8-3.7,3.9.3.2.5.7.5,1.5v2.2c0,.2.1.5.5.4,4.2-1.4,6.4-6,5-10.1C14.4,2.4,11.4.2,8,.2Z"/>
    </g>
  </g>
</svg>
