<?xml version="1.0" encoding="UTF-8"?>
<svg id="Camada_1" xmlns="http://www.w3.org/2000/svg" viewBox="0 0 1024 1023.9">
  <defs>
    <style>
      .cls-1 {
        fill: #f97316;
      }
    </style>
  </defs>
  <path class="cls-1" d="M512,93.69c136.24,0,152.38.51,206.19,2.97,32.35.39,64.39,6.34,94.72,17.58,22.17,8.18,42.22,21.23,58.68,38.18,16.95,16.46,30,36.51,38.18,58.68,11.24,30.33,17.19,62.37,17.58,94.72,2.46,53.81,2.97,69.95,2.97,206.19s-.51,152.38-2.97,206.19c-.39,32.35-6.34,64.39-17.58,94.72-17.17,44.51-52.35,79.69-96.85,96.85-30.33,11.24-62.37,17.19-94.72,17.58-53.81,2.46-69.95,2.97-206.19,2.97s-152.38-.51-206.19-2.97c-32.36-.39-64.42-6.33-94.77-17.58-22.15-8.19-42.18-21.23-58.63-38.18-16.95-16.46-30-36.51-38.18-58.68-11.24-30.33-17.19-62.37-17.58-94.72-2.46-53.81-2.97-69.95-2.97-206.19s.51-152.38,2.97-206.19c.39-32.35,6.34-64.39,17.58-94.72,8.18-22.17,21.23-42.22,38.18-58.68,16.46-16.95,36.51-30,58.68-38.18,30.33-11.24,62.37-17.19,94.72-17.58,53.81-2.46,69.95-2.97,206.19-2.97M512,1.75c-138.56,0-155.95.6-210.36,3.06-42.33.84-84.2,8.86-123.85,23.7-34.06,12.82-64.92,32.93-90.41,58.91-25.96,25.48-46.05,56.32-58.86,90.36-14.83,39.65-22.83,81.53-23.66,123.85-2.55,54.41-3.11,71.81-3.11,210.36s.6,155.95,3.06,210.36c.84,42.33,8.86,84.2,23.7,123.85,12.82,34.06,32.93,64.92,58.91,90.41,25.48,25.96,56.32,46.05,90.36,58.86,39.65,14.83,81.53,22.83,123.85,23.66,54.41,2.55,71.81,3.11,210.36,3.11s155.95-.6,210.36-3.06c42.33-.84,84.2-8.86,123.85-23.7,68.56-26.51,122.76-80.71,149.27-149.27,14.83-39.65,22.83-81.53,23.66-123.85,2.55-54.41,3.11-71.81,3.11-210.36s-.6-155.95-3.06-210.36c-.84-42.33-8.86-84.2-23.7-123.85-12.82-34.06-32.93-64.92-58.91-90.41-25.48-25.96-56.32-46.05-90.36-58.86-39.65-14.83-81.53-22.83-123.85-23.66-54.41-2.55-71.81-3.11-210.36-3.11ZM512,249.96c-144.72,0-262.04,117.32-262.04,262.04s117.32,262.04,262.04,262.04,262.04-117.32,262.04-262.04h0c0-144.72-117.32-262.04-262.04-262.04ZM512,682.1c-93.94,0-170.1-76.16-170.1-170.1,0-93.94,76.16-170.1,170.1-170.1,93.94,0,170.1,76.16,170.1,170.1h0c0,93.94-76.16,170.1-170.1,170.1ZM784.38,178.39c-33.82,0-61.23,27.41-61.23,61.23s27.41,61.23,61.23,61.23c33.82,0,61.23-27.41,61.23-61.23h0c0-33.82-27.41-61.23-61.23-61.23Z"/>
</svg>