<?xml version="1.0" encoding="UTF-8"?>
<svg xmlns="http://www.w3.org/2000/svg" version="1.1" viewBox="0 0 1024 1024">
  <defs>
    <style>
      .cls-1 {
        fill: #f97316;
      }
    </style>
  </defs>
  <g>
    <g id="Camada_1">
      <g>
        <path class="cls-1" d="M929.9,549.7c-4.2,74.9,36.8,138.2,94.1,155v-155.1h-94.1Z"/>
        <path class="cls-1" d="M844.4,0H179.6C80.4,0,0,80.4,0,179.6v664.7c0,99.2,80.4,179.6,179.6,179.6h664.7c99.2,0,179.6-80.4,179.6-179.6v-46.6c-5.8.6-11.8.9-18,.9-109.9,0-171.8-91.6-174.5-206.2,0-4.4,0-8.8,0-13.2,0-2.7.2-5.4.3-8.2,0-1.4.1-2.8.2-4.3.1-1.5.2-3,.3-4.5,4-50.6,20.2-95.6,47.1-128.9,16.7-20.7,36.8-36.4,59.5-47,20-10.1,48.1-15.6,71-15.6h1c4.3,0,8.7.1,12.9.4v-191.5c0-99.2-80.4-179.6-179.6-179.6ZM836.9,244.4l-.8.2c-30.1,6.8-45.4,16.9-45.4,53.5h-.1v438.4c2.7,28.9,18.2,37.8,45.5,43.9l.8.2v6.2h-210v-6.2l.8-.2c27.3-6.2,42.4-15.1,45-43.9v-426.5l-202.4,475.8h-11.2l-196.7-462.9v403c0,36.5,15.3,46.7,45.4,53.5l.8.2v6.3h-120.6v-6.3l.8-.2c30.1-6.8,45.4-16.9,45.4-53.5v-427.8c0-36.5-15.3-46.7-45.4-53.5l-.8-.2v-6.3h177.7l153.1,359.9,153.1-359.9h164.9v6.3Z"/>
        <path class="cls-1" d="M932,528h92v-131.3c-4.5-1.2-9.4-1.9-14.6-2-46.3,1-73.9,56.4-77.4,133.3Z"/>
      </g>
    </g>
  </g>
</svg>
