<?xml version="1.0" encoding="UTF-8"?>
<svg xmlns="http://www.w3.org/2000/svg" version="1.1" viewBox="0 0 16 16">
  <defs>
    <style>
      .cls-1 {
        fill: #f97316;
      }
    </style>
  </defs>
  <g>
    <g id="Camada_1">
      <path class="cls-1" d="M11.8,7.5h-.2c-.1-2.2-1.3-3.4-3.2-3.4h0c-1.1,0-2.1.5-2.7,1.4l1.1.7c.4-.5,1-.8,1.6-.8.6,0,1.1.2,1.4.5.2.3.4.6.4,1.1-.6,0-1.2-.1-1.8,0-1.8.1-3,1.2-2.9,2.6,0,.7.4,1.4,1,1.8.5.4,1.2.5,2,.5.9,0,1.7-.4,2.2-1.1.4-.6.7-1.3.8-2,.4.2.8.6,1,1.1.4,1,.1,2.2-.7,2.9-.9.9-1.9,1.2-3.5,1.2-1.7,0-3.1-.6-3.9-1.7-.8-1-1.2-2.5-1.2-4.4,0-1.9.4-3.4,1.2-4.4.9-1.1,2.2-1.6,3.9-1.7,1.8,0,3.1.6,4,1.7.4.5.8,1.2,1,2l1.2-.3c-.3-1-.7-1.8-1.2-2.5-1.1-1.4-2.8-2.1-5-2.1h0c-2.1,0-3.8.7-4.9,2.1-1,1.3-1.5,3-1.5,5.2h0c0,2.2.5,3.9,1.5,5.2,1.1,1.4,2.8,2.1,4.9,2.1h0c1.9,0,3.3-.5,4.4-1.6,1.2-1.1,1.6-2.9.9-4.4-.4-.8-1.1-1.5-1.9-1.9ZM8.5,10.6c-.8,0-1.6-.3-1.7-1.1,0-.6.4-1.2,1.7-1.3h.4c.5,0,.9,0,1.3.1-.2,1.9-1,2.2-1.8,2.2Z"/>
    </g>
  </g>
</svg>
