<?xml version="1.0" encoding="UTF-8"?>
<svg id="Camada_1" xmlns="http://www.w3.org/2000/svg" viewBox="0 0 1024 1023.9">
  <defs>
    <style>
      .cls-1 {
        fill: #f97316;
      }
    </style>
  </defs>
  <path class="cls-1" d="M1001.56,266.2c-11.75-43.95-46.5-78.7-90.45-90.45-79.72-21.46-399.11-21.46-399.11-21.46,0,0-319.39,0-399.11,21.46-43.95,11.75-78.7,46.5-90.45,90.45C.97,345.92.97,512,.97,512c0,0,0,166.08,21.46,245.8,11.75,43.95,46.5,78.7,90.45,90.45,79.72,21.46,399.11,21.46,399.11,21.46,0,0,319.39,0,399.11-21.46,43.95-11.75,78.7-46.5,90.45-90.45,21.46-79.72,21.46-245.8,21.46-245.8,0,0,0-166.08-21.46-245.8ZM409.79,665.31v-306.62l255.51,153.31-255.51,153.31Z"/>
</svg>