<svg xmlns="http://www.w3.org/2000/svg" xmlns:xlink="http://www.w3.org/1999/xlink" viewBox="0 0 149.46 181.81"><defs><style>.cls-1,.cls-5,.cls-7{fill:none;}.cls-2{opacity:0.3;}.cls-3{clip-path:url(#clip-path);}.cls-4{fill:#ed6637;}.cls-5,.cls-7{stroke:#000;stroke-linecap:round;stroke-linejoin:round;}.cls-5{stroke-width:5.15px;}.cls-6{fill:#fff;}.cls-7{stroke-width:1.8px;}</style><clipPath id="clip-path"><rect class="cls-1" x="20.81" y="20.81" width="128.64" height="161"/></clipPath></defs><title>Asset 10</title><g id="Layer_2" data-name="Layer 2"><g id="Layer_1-2" data-name="Layer 1"><g class="cls-2"><g class="cls-3"><path d="M148.33,72.34A29.91,29.91,0,0,0,149.46,65q0-4.7-2.26-7l-1.51-1.51L112.23,23.07A8.39,8.39,0,0,0,106,20.81a44.51,44.51,0,0,0-8.09.94l-39.69,7a18.89,18.89,0,0,0-6,1.88A4.54,4.54,0,0,0,50,33.79a6.13,6.13,0,0,0-.38,1.88,4.9,4.9,0,0,0,1.32,3.48A30.46,30.46,0,0,0,55,42.63a20.44,20.44,0,0,1,4.7,3.86,7.12,7.12,0,0,1,1.69,4.8,9.06,9.06,0,0,1-.38,2.82L41.51,123.33a10.75,10.75,0,0,1-4,6.21,31.27,31.27,0,0,1-7.81,3.76A37,37,0,0,0,23.73,136,6.32,6.32,0,0,0,21,139.51a5.78,5.78,0,0,0-.19,1.69,5,5,0,0,0,1.88,4.14l34.15,34.15a5,5,0,0,0,.82.82q1.88,1.51,5.83,1.5h56.62q7,0,10.06-1.13a6.21,6.21,0,0,0,4-3.95,6.64,6.64,0,0,0,.19-1.88,4.33,4.33,0,0,0-1.13-3.2,21.84,21.84,0,0,0-4-2.82,21.08,21.08,0,0,1-4.51-3.2,5.58,5.58,0,0,1-1.51-4.14,8,8,0,0,1,.38-2.82Z"/></g></g><path class="cls-4" d="M130.09,54.1a29.91,29.91,0,0,0,1.13-7.34q0-4.7-2.26-7l-1.51-1.51L94,4.83a8.39,8.39,0,0,0-6.21-2.26,44.51,44.51,0,0,0-8.09.94L40,10.48a18.89,18.89,0,0,0-6,1.88,4.54,4.54,0,0,0-2.26,3.2,6.13,6.13,0,0,0-.38,1.88,4.9,4.9,0,0,0,1.32,3.48,30.53,30.53,0,0,0,4.14,3.48,20.44,20.44,0,0,1,4.7,3.86A7.12,7.12,0,0,1,43.21,33a9.06,9.06,0,0,1-.38,2.82L23.27,105.09a10.75,10.75,0,0,1-4,6.21,31.27,31.27,0,0,1-7.81,3.76,37,37,0,0,0-5.92,2.73,6.32,6.32,0,0,0-2.73,3.48A5.78,5.78,0,0,0,2.58,123a5,5,0,0,0,1.88,4.14L38.6,161.24a5,5,0,0,0,.82.82q1.88,1.51,5.83,1.5h56.62q7,0,10.06-1.13a6.21,6.21,0,0,0,4-3.95,6.65,6.65,0,0,0,.19-1.88,4.33,4.33,0,0,0-1.13-3.2,21.84,21.84,0,0,0-4-2.82,21.08,21.08,0,0,1-4.51-3.2,5.58,5.58,0,0,1-1.51-4.14,8,8,0,0,1,.38-2.82Z"/><path class="cls-5" d="M130.09,54.1a29.91,29.91,0,0,0,1.13-7.34q0-4.7-2.26-7l-1.51-1.51L94,4.83a8.39,8.39,0,0,0-6.21-2.26,44.51,44.51,0,0,0-8.09.94L40,10.48a18.89,18.89,0,0,0-6,1.88,4.54,4.54,0,0,0-2.26,3.2,6.13,6.13,0,0,0-.38,1.88,4.9,4.9,0,0,0,1.32,3.48,30.53,30.53,0,0,0,4.14,3.48,20.44,20.44,0,0,1,4.7,3.86A7.12,7.12,0,0,1,43.21,33a9.06,9.06,0,0,1-.38,2.82L23.27,105.09a10.75,10.75,0,0,1-4,6.21,31.27,31.27,0,0,1-7.81,3.76,37,37,0,0,0-5.92,2.73,6.32,6.32,0,0,0-2.73,3.48A5.78,5.78,0,0,0,2.58,123a5,5,0,0,0,1.88,4.14L38.6,161.24a5,5,0,0,0,.82.82q1.88,1.51,5.83,1.5h56.62q7,0,10.06-1.13a6.21,6.21,0,0,0,4-3.95,6.65,6.65,0,0,0,.19-1.88,4.33,4.33,0,0,0-1.13-3.2,21.84,21.84,0,0,0-4-2.82,21.08,21.08,0,0,1-4.51-3.2,5.58,5.58,0,0,1-1.51-4.14,8,8,0,0,1,.38-2.82Z"/><path class="cls-6" d="M87.79,2.58A8.39,8.39,0,0,1,94,4.83q2.26,2.26,2.26,7a29.91,29.91,0,0,1-1.13,7.34L70.48,105.47a8,8,0,0,0-.38,2.82,5.58,5.58,0,0,0,1.51,4.14,21,21,0,0,0,4.51,3.2,21.78,21.78,0,0,1,4,2.82,4.33,4.33,0,0,1,1.13,3.2,6.64,6.64,0,0,1-.19,1.88,6.21,6.21,0,0,1-4,3.95q-3.1,1.13-10.06,1.13H10.29q-4,0-5.83-1.51A5,5,0,0,1,2.58,123a5.79,5.79,0,0,1,.19-1.69,6.32,6.32,0,0,1,2.73-3.48,36.91,36.91,0,0,1,5.92-2.73,31.25,31.25,0,0,0,7.81-3.76,10.75,10.75,0,0,0,4-6.21L42.83,35.87A9,9,0,0,0,43.21,33a7.12,7.12,0,0,0-1.69-4.8,20.41,20.41,0,0,0-4.7-3.86,30.66,30.66,0,0,1-4.14-3.48,4.9,4.9,0,0,1-1.32-3.48,6.13,6.13,0,0,1,.38-1.88A4.54,4.54,0,0,1,34,12.36a18.91,18.91,0,0,1,6-1.88l39.69-7a44.49,44.49,0,0,1,8.09-.94"/><path class="cls-7" d="M87.79,2.58A8.39,8.39,0,0,1,94,4.83q2.26,2.26,2.26,7a29.91,29.91,0,0,1-1.13,7.34L70.48,105.47a8,8,0,0,0-.38,2.82,5.58,5.58,0,0,0,1.51,4.14,21,21,0,0,0,4.51,3.2,21.78,21.78,0,0,1,4,2.82,4.33,4.33,0,0,1,1.13,3.2,6.64,6.64,0,0,1-.19,1.88,6.21,6.21,0,0,1-4,3.95q-3.1,1.13-10.06,1.13H10.29q-4,0-5.83-1.51A5,5,0,0,1,2.58,123a5.79,5.79,0,0,1,.19-1.69,6.32,6.32,0,0,1,2.73-3.48,36.91,36.91,0,0,1,5.92-2.73,31.25,31.25,0,0,0,7.81-3.76,10.75,10.75,0,0,0,4-6.21L42.83,35.87A9,9,0,0,0,43.21,33a7.12,7.12,0,0,0-1.69-4.8,20.41,20.41,0,0,0-4.7-3.86,30.66,30.66,0,0,1-4.14-3.48,4.9,4.9,0,0,1-1.32-3.48,6.13,6.13,0,0,1,.38-1.88A4.54,4.54,0,0,1,34,12.36a18.91,18.91,0,0,1,6-1.88l39.69-7A44.49,44.49,0,0,1,87.79,2.58Z"/><path class="cls-5" d="M87.79,2.58A8.39,8.39,0,0,1,94,4.83q2.26,2.26,2.26,7a29.91,29.91,0,0,1-1.13,7.34L70.48,105.47a8,8,0,0,0-.38,2.82,5.58,5.58,0,0,0,1.51,4.14,21,21,0,0,0,4.51,3.2,21.78,21.78,0,0,1,4,2.82,4.33,4.33,0,0,1,1.13,3.2,6.64,6.64,0,0,1-.19,1.88,6.21,6.21,0,0,1-4,3.95q-3.1,1.13-10.06,1.13H10.29q-4,0-5.83-1.51A5,5,0,0,1,2.58,123a5.79,5.79,0,0,1,.19-1.69,6.32,6.32,0,0,1,2.73-3.48,36.91,36.91,0,0,1,5.92-2.73,31.25,31.25,0,0,0,7.81-3.76,10.75,10.75,0,0,0,4-6.21L42.83,35.87A9,9,0,0,0,43.21,33a7.12,7.12,0,0,0-1.69-4.8,20.41,20.41,0,0,0-4.7-3.86,30.66,30.66,0,0,1-4.14-3.48,4.9,4.9,0,0,1-1.32-3.48,6.13,6.13,0,0,1,.38-1.88A4.54,4.54,0,0,1,34,12.36a18.91,18.91,0,0,1,6-1.88l39.69-7A44.49,44.49,0,0,1,87.79,2.58Z"/></g></g></svg>