<svg xmlns="http://www.w3.org/2000/svg" xmlns:xlink="http://www.w3.org/1999/xlink" viewBox="0 0 188.29 180.39"><defs><style>.cls-1,.cls-5,.cls-7{fill:none;}.cls-2{opacity:0.3;}.cls-3{clip-path:url(#clip-path);}.cls-4{fill:#ed6637;}.cls-5,.cls-7{stroke:#000;stroke-linecap:round;stroke-linejoin:round;}.cls-5{stroke-width:5.15px;}.cls-6{fill:#fff;}.cls-7{stroke-width:1.8px;}</style><clipPath id="clip-path"><rect class="cls-1" x="20.15" y="20.15" width="168.15" height="160.24"/></clipPath></defs><title>Asset 11</title><g id="Layer_2" data-name="Layer 2"><g id="Layer_1-2" data-name="Layer 1"><g class="cls-2"><g class="cls-3"><path d="M181.05,74.49A38.47,38.47,0,0,0,176.54,70L146.07,39.51q-7.24-8.64-21.06-14T92.38,20.15q-21.44,0-35.17,5.74T40.09,42.72a22.58,22.58,0,0,0-.94,6.77q0,7.71,5.08,12.23l17.9,17.9q-16,5.07-25.24,12.1a40.4,40.4,0,0,0-14.48,21,48.68,48.68,0,0,0-2.26,13.92q0,8.65,3.67,13.73a14.41,14.41,0,0,0,1.31,1.55v0L60.24,177h0a11.15,11.15,0,0,0,8.22,3.37h66.4q19.75,0,29.53-5.08t13.54-17.12a40.16,40.16,0,0,0,1.69-10.72q0-7.15-2.82-11.76A12.37,12.37,0,0,0,174,132.4h0l-12.26-12.26q11-3.38,16.57-7.45a24.42,24.42,0,0,0,8.84-12.41,25.43,25.43,0,0,0,1.13-7.34q0-9.78-7.24-18.43"/></g></g><path class="cls-4" d="M163.48,56.92A38.4,38.4,0,0,0,159,52.41L128.5,21.94q-7.24-8.64-21.06-14T74.81,2.58q-21.44,0-35.17,5.74T22.51,25.15a22.58,22.58,0,0,0-.94,6.77q0,7.72,5.08,12.23L44.55,62q-16,5.07-25.24,12.1a40.39,40.39,0,0,0-14.48,21A48.69,48.69,0,0,0,2.58,109q0,8.65,3.67,13.73a14.3,14.3,0,0,0,1.31,1.55v0l35.11,35.11h0a11.15,11.15,0,0,0,8.22,3.37h66.4q19.75,0,29.53-5.08t13.54-17.12a40.12,40.12,0,0,0,1.69-10.72q0-7.14-2.82-11.75a12.35,12.35,0,0,0-2.81-3.32h0l-12.26-12.26q10.95-3.38,16.57-7.45a24.42,24.42,0,0,0,8.84-12.41,25.48,25.48,0,0,0,1.13-7.34q0-9.78-7.24-18.43"/><path class="cls-5" d="M163.48,56.92A38.4,38.4,0,0,0,159,52.41L128.5,21.94q-7.24-8.64-21.06-14T74.81,2.58q-21.44,0-35.17,5.74T22.51,25.15a22.58,22.58,0,0,0-.94,6.77q0,7.72,5.08,12.23L44.55,62q-16,5.07-25.24,12.1a40.39,40.39,0,0,0-14.48,21A48.69,48.69,0,0,0,2.58,109q0,8.65,3.67,13.73a14.3,14.3,0,0,0,1.31,1.55v0l35.11,35.11h0a11.15,11.15,0,0,0,8.22,3.37h66.4q19.75,0,29.53-5.08t13.54-17.12a40.12,40.12,0,0,0,1.69-10.72q0-7.14-2.82-11.75a12.35,12.35,0,0,0-2.81-3.32h0l-12.26-12.26q10.95-3.38,16.57-7.45a24.42,24.42,0,0,0,8.84-12.41,25.48,25.48,0,0,0,1.13-7.34Q170.72,65.57,163.48,56.92Z"/><path class="cls-6" d="M107.44,7.94q13.83,5.36,21.07,14t7.24,18.43a25.45,25.45,0,0,1-1.13,7.34,24.43,24.43,0,0,1-8.84,12.41q-6.21,4.51-19,8.18T67.47,77.06q-16,3-24,5.36t-11.1,5a9.69,9.69,0,0,0-3.48,6.77H83.08q11.29,0,17.12-3a43.93,43.93,0,0,0,10.91-8.09,28.62,28.62,0,0,1,3.67-3.48,5.43,5.43,0,0,1,3.29-1q3.39,0,6.21,4.61t2.82,11.76a40.15,40.15,0,0,1-1.69,10.72q-3.77,12-13.54,17.12t-29.53,5.08H15.93a11.4,11.4,0,0,1-9.69-5.08Q2.58,117.69,2.58,109A48.69,48.69,0,0,1,4.83,95.12a40.4,40.4,0,0,1,14.48-21Q29.85,66.15,49,60.7q12.79-3.76,19.75-7.43t10-7.34a26.69,26.69,0,0,0,4.7-9.12,26.67,26.67,0,0,0,.94-6.21,11.45,11.45,0,0,0-3.2-8.46,11.7,11.7,0,0,0-8.65-3.2,31.82,31.82,0,0,0-5.27.75,22.7,22.7,0,0,1,.19,3.39q0,12.79-7.71,19.19t-19.37,6.4q-8.66,0-13.73-4.51T21.57,31.92a22.61,22.61,0,0,1,.94-6.77Q25.9,14.05,39.63,8.31T74.81,2.58q18.81,0,32.64,5.36"/><path class="cls-7" d="M107.44,7.94q13.83,5.36,21.07,14t7.24,18.43a25.45,25.45,0,0,1-1.13,7.34,24.43,24.43,0,0,1-8.84,12.41q-6.21,4.51-19,8.18T67.47,77.06q-16,3-24,5.36t-11.1,5a9.69,9.69,0,0,0-3.48,6.77H83.08q11.29,0,17.12-3a43.93,43.93,0,0,0,10.91-8.09,28.62,28.62,0,0,1,3.67-3.48,5.43,5.43,0,0,1,3.29-1q3.39,0,6.21,4.61t2.82,11.76a40.15,40.15,0,0,1-1.69,10.72q-3.77,12-13.54,17.12t-29.53,5.08H15.93a11.4,11.4,0,0,1-9.69-5.08Q2.58,117.69,2.58,109A48.69,48.69,0,0,1,4.83,95.12a40.4,40.4,0,0,1,14.48-21Q29.85,66.15,49,60.7q12.79-3.76,19.75-7.43t10-7.34a26.69,26.69,0,0,0,4.7-9.12,26.67,26.67,0,0,0,.94-6.21,11.45,11.45,0,0,0-3.2-8.46,11.7,11.7,0,0,0-8.65-3.2,31.82,31.82,0,0,0-5.27.75,22.7,22.7,0,0,1,.19,3.39q0,12.79-7.71,19.19t-19.37,6.4q-8.66,0-13.73-4.51T21.57,31.92a22.61,22.61,0,0,1,.94-6.77Q25.9,14.05,39.63,8.31T74.81,2.58Q93.61,2.58,107.44,7.94Z"/><path class="cls-5" d="M107.44,7.94q13.83,5.36,21.07,14t7.24,18.43a25.45,25.45,0,0,1-1.13,7.34,24.43,24.43,0,0,1-8.84,12.41q-6.21,4.51-19,8.18T67.47,77.06q-16,3-24,5.36t-11.1,5a9.69,9.69,0,0,0-3.48,6.77H83.08q11.29,0,17.12-3a43.93,43.93,0,0,0,10.91-8.09,28.62,28.62,0,0,1,3.67-3.48,5.43,5.43,0,0,1,3.29-1q3.39,0,6.21,4.61t2.82,11.76a40.15,40.15,0,0,1-1.69,10.72q-3.77,12-13.54,17.12t-29.53,5.08H15.93a11.4,11.4,0,0,1-9.69-5.08Q2.58,117.69,2.58,109A48.69,48.69,0,0,1,4.83,95.12a40.4,40.4,0,0,1,14.48-21Q29.85,66.15,49,60.7q12.79-3.76,19.75-7.43t10-7.34a26.69,26.69,0,0,0,4.7-9.12,26.67,26.67,0,0,0,.94-6.21,11.45,11.45,0,0,0-3.2-8.46,11.7,11.7,0,0,0-8.65-3.2,31.82,31.82,0,0,0-5.27.75,22.7,22.7,0,0,1,.19,3.39q0,12.79-7.71,19.19t-19.37,6.4q-8.66,0-13.73-4.51T21.57,31.92a22.61,22.61,0,0,1,.94-6.77Q25.9,14.05,39.63,8.31T74.81,2.58Q93.61,2.58,107.44,7.94Z"/></g></g></svg>