<svg xmlns="http://www.w3.org/2000/svg" xmlns:xlink="http://www.w3.org/1999/xlink" viewBox="0 0 193.81 181.21"><defs><style>.cls-1,.cls-5,.cls-7{fill:none;}.cls-2{opacity:0.3;}.cls-3{clip-path:url(#clip-path);}.cls-4{fill:#ed6637;}.cls-5,.cls-7{stroke:#000;stroke-linecap:round;stroke-linejoin:round;}.cls-5{stroke-width:5.15px;}.cls-6{fill:#fff;}.cls-7{stroke-width:1.8px;}</style><clipPath id="clip-path"><rect class="cls-1" x="20.02" y="20.02" width="173.79" height="161.19"/></clipPath></defs><title>Asset 12</title><g id="Layer_2" data-name="Layer 2"><g id="Layer_1-2" data-name="Layer 1"><g class="cls-2"><g class="cls-3"><path d="M187.62,73.8c-.51-.6-1-1.2-1.62-1.79-.77-.79-1.59-1.54-2.44-2.27L152.65,38.83c-.51-.6-1-1.2-1.62-1.79q-7.81-8-21.54-12.51A98.49,98.49,0,0,0,98.65,20q-27.09,0-40.82,6T41.09,42.22A22.53,22.53,0,0,0,40,49a14.94,14.94,0,0,0,2.86,9.18v0l.13.13a15.45,15.45,0,0,0,2.83,2.83L77.91,93.29a15.42,15.42,0,0,0,2.83,2.83l17.15,17.15a19.25,19.25,0,0,1-6.57,10.4c-.38.29-.77.56-1.17.82L79.4,113.74,71,105.38c-3.51-3.51-6.25-6.46-10.79-8.64a34.69,34.69,0,0,0-15-3A31.43,31.43,0,0,0,30,97.24q-6.4,3.48-8.84,11.57a21.86,21.86,0,0,0-1.13,7q0,8.65,6.77,15.52l35,35q6.77,6.87,20.69,10.91t34.61,4q25.77,0,43.45-8t21.82-21.35a31,31,0,0,0,1.32-8.65,19.14,19.14,0,0,0-4.89-13.07,24.06,24.06,0,0,0-1.83-1.84l-8.81-8.81a41.28,41.28,0,0,0,14.5-6.19q7.05-5.08,10.06-15.42a28,28,0,0,0,1.13-7.71,24.77,24.77,0,0,0-6.19-16.36"/></g></g><path class="cls-4" d="M170.18,56.36c-.51-.6-1-1.2-1.62-1.79-.77-.79-1.59-1.54-2.44-2.27L135.21,21.39c-.51-.6-1-1.2-1.62-1.79q-7.81-8-21.54-12.51A98.49,98.49,0,0,0,81.2,2.58q-27.09,0-40.82,6T23.64,24.77a22.53,22.53,0,0,0-1.13,6.77,14.94,14.94,0,0,0,2.86,9.18v0l.13.13a15.45,15.45,0,0,0,2.83,2.83L60.46,75.84a15.42,15.42,0,0,0,2.83,2.83L80.43,95.82a19.24,19.24,0,0,1-6.57,10.4c-.38.29-.77.56-1.17.82L62,96.29l-8.36-8.36c-3.51-3.51-6.25-6.46-10.79-8.64a34.7,34.7,0,0,0-15-3,31.43,31.43,0,0,0-15.24,3.48Q6.15,83.27,3.7,91.36a21.86,21.86,0,0,0-1.13,7q0,8.65,6.77,15.52l35,35q6.77,6.87,20.69,10.91t34.61,4q25.77,0,43.45-8t21.82-21.35a31,31,0,0,0,1.32-8.65,19.14,19.14,0,0,0-4.89-13.07,24.23,24.23,0,0,0-1.83-1.84L150.67,102a41.28,41.28,0,0,0,14.5-6.19q7.05-5.08,10.06-15.42a28,28,0,0,0,1.13-7.71,24.77,24.77,0,0,0-6.19-16.36"/><path class="cls-5" d="M170.18,56.36c-.51-.6-1-1.2-1.62-1.79-.77-.79-1.59-1.54-2.44-2.27L135.21,21.39c-.51-.6-1-1.2-1.62-1.79q-7.81-8-21.54-12.51A98.49,98.49,0,0,0,81.2,2.58q-27.09,0-40.82,6T23.64,24.77a22.53,22.53,0,0,0-1.13,6.77,14.94,14.94,0,0,0,2.86,9.18v0l.13.13a15.45,15.45,0,0,0,2.83,2.83L60.46,75.84a15.42,15.42,0,0,0,2.83,2.83L80.43,95.82a19.24,19.24,0,0,1-6.57,10.4c-.38.29-.77.56-1.17.82L62,96.29l-8.36-8.36c-3.51-3.51-6.25-6.46-10.79-8.64a34.7,34.7,0,0,0-15-3,31.43,31.43,0,0,0-15.24,3.48Q6.15,83.27,3.7,91.36a21.86,21.86,0,0,0-1.13,7q0,8.65,6.77,15.52l35,35q6.77,6.87,20.69,10.91t34.61,4q25.77,0,43.45-8t21.82-21.35a31,31,0,0,0,1.32-8.65,19.14,19.14,0,0,0-4.89-13.07,24.23,24.23,0,0,0-1.83-1.84L150.67,102a41.28,41.28,0,0,0,14.5-6.19q7.05-5.08,10.06-15.42a28,28,0,0,0,1.13-7.71A24.77,24.77,0,0,0,170.18,56.36Z"/><path class="cls-6" d="M130.2,60.89Q123.15,66,111.11,68q10.34,4.14,15.24,9.69a19.14,19.14,0,0,1,4.89,13.07,30.94,30.94,0,0,1-1.32,8.65q-4.14,13.36-21.82,21.35t-43.45,8q-20.69,0-34.61-4T9.35,113.84Q2.57,107,2.58,98.32a21.86,21.86,0,0,1,1.13-7q2.44-8.09,8.84-11.57a31.43,31.43,0,0,1,15.24-3.48q11.47,0,18.62,5.08t7.15,13.17a26.42,26.42,0,0,1-1,7,20.07,20.07,0,0,1-2.92,6.4A31.45,31.45,0,0,0,61.83,110a19.15,19.15,0,0,0,12-3.76q4.89-3.76,6.77-11.1a24.35,24.35,0,0,0,1.13-7q0-6.58-4-10.44a14.52,14.52,0,0,0-10.44-3.86q-10.72,0-10.72-6.4a15.74,15.74,0,0,1,.38-2.63,12.12,12.12,0,0,1,3.67-5.64,10.46,10.46,0,0,1,6.68-1.88h5.45a16.69,16.69,0,0,0,11.19-4.42,25.49,25.49,0,0,0,6.87-11.38,32.63,32.63,0,0,0,1.13-7.71q0-7.15-3.95-10.63a13.76,13.76,0,0,0-9.4-3.48,31.41,31.41,0,0,0-7.15.75A33.65,33.65,0,0,1,72,26.65a28.74,28.74,0,0,1-.56,5.64A20.3,20.3,0,0,1,63.14,44q-6.4,4.51-17.31,4.51-11.1,0-17.21-4.51a14.59,14.59,0,0,1-6.11-12.42,22.53,22.53,0,0,1,1.13-6.77q3-10.16,16.74-16.18t40.82-6a98.49,98.49,0,0,1,30.85,4.52q13.73,4.52,21.54,12.51t7.81,18.15a28,28,0,0,1-1.13,7.71q-3,10.35-10.06,15.42"/><path class="cls-7" d="M130.2,60.89Q123.15,66,111.11,68q10.34,4.14,15.24,9.69a19.14,19.14,0,0,1,4.89,13.07,30.94,30.94,0,0,1-1.32,8.65q-4.14,13.36-21.82,21.35t-43.45,8q-20.69,0-34.61-4T9.35,113.84Q2.57,107,2.58,98.32a21.86,21.86,0,0,1,1.13-7q2.44-8.09,8.84-11.57a31.43,31.43,0,0,1,15.24-3.48q11.47,0,18.62,5.08t7.15,13.17a26.42,26.42,0,0,1-1,7,20.07,20.07,0,0,1-2.92,6.4A31.45,31.45,0,0,0,61.83,110a19.15,19.15,0,0,0,12-3.76q4.89-3.76,6.77-11.1a24.35,24.35,0,0,0,1.13-7q0-6.58-4-10.44a14.52,14.52,0,0,0-10.44-3.86q-10.72,0-10.72-6.4a15.74,15.74,0,0,1,.38-2.63,12.12,12.12,0,0,1,3.67-5.64,10.46,10.46,0,0,1,6.68-1.88h5.45a16.69,16.69,0,0,0,11.19-4.42,25.49,25.49,0,0,0,6.87-11.38,32.63,32.63,0,0,0,1.13-7.71q0-7.15-3.95-10.63a13.76,13.76,0,0,0-9.4-3.48,31.41,31.41,0,0,0-7.15.75A33.65,33.65,0,0,1,72,26.65a28.74,28.74,0,0,1-.56,5.64A20.3,20.3,0,0,1,63.14,44q-6.4,4.51-17.31,4.51-11.1,0-17.21-4.51a14.59,14.59,0,0,1-6.11-12.42,22.53,22.53,0,0,1,1.13-6.77q3-10.16,16.74-16.18t40.82-6a98.49,98.49,0,0,1,30.85,4.52q13.73,4.52,21.54,12.51t7.81,18.15a28,28,0,0,1-1.13,7.71Q137.25,55.81,130.2,60.89Z"/><path class="cls-5" d="M130.2,60.89Q123.15,66,111.11,68q10.34,4.14,15.24,9.69a19.14,19.14,0,0,1,4.89,13.07,30.94,30.94,0,0,1-1.32,8.65q-4.14,13.36-21.82,21.35t-43.45,8q-20.69,0-34.61-4T9.35,113.84Q2.57,107,2.58,98.32a21.86,21.86,0,0,1,1.13-7q2.44-8.09,8.84-11.57a31.43,31.43,0,0,1,15.24-3.48q11.47,0,18.62,5.08t7.15,13.17a26.42,26.42,0,0,1-1,7,20.07,20.07,0,0,1-2.92,6.4A31.45,31.45,0,0,0,61.83,110a19.15,19.15,0,0,0,12-3.76q4.89-3.76,6.77-11.1a24.35,24.35,0,0,0,1.13-7q0-6.58-4-10.44a14.52,14.52,0,0,0-10.44-3.86q-10.72,0-10.72-6.4a15.74,15.74,0,0,1,.38-2.63,12.12,12.12,0,0,1,3.67-5.64,10.46,10.46,0,0,1,6.68-1.88h5.45a16.69,16.69,0,0,0,11.19-4.42,25.49,25.49,0,0,0,6.87-11.38,32.63,32.63,0,0,0,1.13-7.71q0-7.15-3.95-10.63a13.76,13.76,0,0,0-9.4-3.48,31.41,31.41,0,0,0-7.15.75A33.65,33.65,0,0,1,72,26.65a28.74,28.74,0,0,1-.56,5.64A20.3,20.3,0,0,1,63.14,44q-6.4,4.51-17.31,4.51-11.1,0-17.21-4.51a14.59,14.59,0,0,1-6.11-12.42,22.53,22.53,0,0,1,1.13-6.77q3-10.16,16.74-16.18t40.82-6a98.49,98.49,0,0,1,30.85,4.52q13.73,4.52,21.54,12.51t7.81,18.15a28,28,0,0,1-1.13,7.71Q137.25,55.81,130.2,60.89Z"/></g></g></svg>